<?xml version="1.0" encoding="UTF-8" standalone="no"?>
<svg
   xmlns:osb="http://www.openswatchbook.org/uri/2009/osb"
   xmlns:dc="http://purl.org/dc/elements/1.1/"
   xmlns:cc="http://creativecommons.org/ns#"
   xmlns:rdf="http://www.w3.org/1999/02/22-rdf-syntax-ns#"
   xmlns:svg="http://www.w3.org/2000/svg"
   xmlns="http://www.w3.org/2000/svg"
   xmlns:xlink="http://www.w3.org/1999/xlink"
   xmlns:sodipodi="http://sodipodi.sourceforge.net/DTD/sodipodi-0.dtd"
   xmlns:inkscape="http://www.inkscape.org/namespaces/inkscape"
   width="149.66722mm"
   height="117.35081mm"
   viewBox="0 0 149.66722 117.35081"
   version="1.1"
   id="svg8"
   inkscape:version="1.0.1 (3bc2e813f5, 2020-09-07)"
   sodipodi:docname="wasp-logo-1.svg">
  <defs
     id="defs2">
    <inkscape:path-effect
       effect="mirror_symmetry"
       start_point="157.2608,49.272902"
       end_point="157.2608,155.79241"
       center_point="157.2608,102.53266"
       id="path-effect1138"
       is_visible="true"
       lpeversion="1"
       mode="vertical"
       discard_orig_path="false"
       fuse_paths="true"
       oposite_fuse="false"
       split_items="false" />
    <linearGradient
       inkscape:collect="always"
       id="linearGradient1125">
      <stop
         style="stop-color:#737474;stop-opacity:1"
         offset="0"
         id="stop1121" />
      <stop
         style="stop-color:#000000;stop-opacity:1"
         offset="1"
         id="stop1123" />
    </linearGradient>
    <inkscape:path-effect
       effect="mirror_symmetry"
       start_point="234.34635,95.734375"
       end_point="234.34635,344.56645"
       center_point="234.34635,220.15041"
       id="path-effect1118"
       is_visible="true"
       lpeversion="1"
       mode="vertical"
       discard_orig_path="false"
       fuse_paths="false"
       oposite_fuse="false"
       split_items="true" />
    <inkscape:path-effect
       effect="mirror_symmetry"
       start_point="76.299383,64.524227"
       end_point="76.299383,133.31589"
       center_point="76.299383,98.920058"
       id="path-effect267"
       is_visible="true"
       lpeversion="1"
       mode="vertical"
       discard_orig_path="false"
       fuse_paths="false"
       oposite_fuse="false"
       split_items="true" />
    <linearGradient
       inkscape:collect="always"
       id="linearGradient3126">
      <stop
         style="stop-color:#ffff72;stop-opacity:1"
         offset="0"
         id="stop3122" />
      <stop
         style="stop-color:#ffcf00;stop-opacity:1"
         offset="1"
         id="stop3124" />
    </linearGradient>
    <linearGradient
       id="linearGradient1128"
       osb:paint="solid">
      <stop
         style="stop-color:#06202a;stop-opacity:1;"
         offset="0"
         id="stop1126" />
    </linearGradient>
    <inkscape:path-effect
       effect="mirror_symmetry"
       start_point="397.71916,1.3107699"
       end_point="397.71916,1123.8305"
       center_point="397.71916,562.57062"
       id="path-effect1049"
       is_visible="true"
       lpeversion="1"
       mode="vertical"
       discard_orig_path="false"
       fuse_paths="true"
       oposite_fuse="true"
       split_items="false" />
    <inkscape:path-effect
       effect="mirror_symmetry"
       start_point="101.825,-6.879167"
       end_point="101.825,290.12083"
       center_point="101.825,141.62083"
       id="path-effect1047"
       is_visible="true"
       lpeversion="1"
       mode="vertical"
       discard_orig_path="false"
       fuse_paths="false"
       oposite_fuse="false"
       split_items="false" />
    <inkscape:path-effect
       effect="mirror_symmetry"
       start_point="157.50933,50.295326"
       end_point="157.50933,143.76522"
       center_point="157.50933,97.030273"
       id="path-effect1041"
       is_visible="true"
       lpeversion="1"
       mode="vertical"
       discard_orig_path="false"
       fuse_paths="false"
       oposite_fuse="false"
       split_items="false" />
    <inkscape:path-effect
       effect="mirror_symmetry"
       start_point="202.58303,-69.190226"
       end_point="202.58303,26.781546"
       center_point="202.58303,-21.20434"
       id="path-effect1018"
       is_visible="true"
       lpeversion="1"
       mode="vertical"
       discard_orig_path="false"
       fuse_paths="false"
       oposite_fuse="false"
       split_items="false" />
    <inkscape:path-effect
       effect="mirror_symmetry"
       start_point="99.220842,31.562268"
       end_point="99.220842,122.2375"
       center_point="99.220842,76.899884"
       id="path-effect1004"
       is_visible="true"
       lpeversion="1"
       mode="vertical"
       discard_orig_path="false"
       fuse_paths="false"
       oposite_fuse="false"
       split_items="false" />
    <inkscape:path-effect
       effect="mirror_symmetry"
       start_point="99.220842,31.562268"
       end_point="99.220842,79.260152"
       center_point="99.220842,55.41121"
       id="path-effect1001"
       is_visible="true"
       lpeversion="1"
       mode="vertical"
       discard_orig_path="false"
       fuse_paths="false"
       oposite_fuse="false"
       split_items="false" />
    <inkscape:path-effect
       effect="mirror_symmetry"
       start_point="153.70429,50"
       end_point="153.70429,176.68064"
       center_point="153.70429,113.34032"
       id="path-effect66"
       is_visible="true"
       lpeversion="1"
       mode="vertical"
       discard_orig_path="false"
       fuse_paths="false"
       oposite_fuse="false"
       split_items="false" />
    <inkscape:path-effect
       effect="mirror_symmetry"
       start_point="119.24732,18.733145"
       end_point="25.87015,300.67233"
       center_point="72.558737,159.70274"
       id="path-effect64"
       is_visible="true"
       lpeversion="1"
       mode="vertical"
       discard_orig_path="false"
       fuse_paths="false"
       oposite_fuse="false"
       split_items="false" />
    <inkscape:perspective
       sodipodi:type="inkscape:persp3d"
       inkscape:vp_x="0 : 199.19191 : 1"
       inkscape:vp_y="0 : 1000 : 0"
       inkscape:vp_z="210.00001 : 199.19191 : 1"
       inkscape:persp3d-origin="105 : 149.69191 : 1"
       id="perspective14" />
    <radialGradient
       inkscape:collect="always"
       xlink:href="#linearGradient3126"
       id="radialGradient3128"
       cx="400.85034"
       cy="246.61218"
       fx="400.85034"
       fy="246.61218"
       r="200.35144"
       gradientTransform="matrix(-0.26457099,-0.00255552,-0.0029588,0.30632251,210.95458,-8.3957728)"
       gradientUnits="userSpaceOnUse" />
    <radialGradient
       inkscape:collect="always"
       xlink:href="#linearGradient1125"
       id="radialGradient1129"
       cx="204.46272"
       cy="235.85814"
       fx="204.46272"
       fy="235.85814"
       r="74.132378"
       gradientTransform="matrix(1,0,0,1.6782955,0,-149.32703)"
       gradientUnits="userSpaceOnUse" />
    <radialGradient
       inkscape:collect="always"
       xlink:href="#linearGradient1125"
       id="radialGradient1135"
       gradientUnits="userSpaceOnUse"
       gradientTransform="matrix(1,0,0,1.6782955,0,-149.32703)"
       cx="204.46272"
       cy="235.85814"
       fx="204.46272"
       fy="235.85814"
       r="74.132378" />
  </defs>
  <sodipodi:namedview
     id="base"
     pagecolor="#ffffff"
     bordercolor="#666666"
     borderopacity="1.0"
     inkscape:pageopacity="0.0"
     inkscape:pageshadow="2"
     inkscape:zoom="1.570955"
     inkscape:cx="250.94099"
     inkscape:cy="227.23505"
     inkscape:document-units="mm"
     inkscape:current-layer="layer3"
     inkscape:document-rotation="0"
     showgrid="false"
     inkscape:window-width="1920"
     inkscape:window-height="1052"
     inkscape:window-x="0"
     inkscape:window-y="0"
     inkscape:window-maximized="1"
     showguides="true">
    <inkscape:grid
       type="xygrid"
       id="grid34"
       originx="-76.69092"
       originy="-101.39035" />
  </sodipodi:namedview>
  <metadata
     id="metadata5">
    <rdf:RDF>
      <cc:Work
         rdf:about="">
        <dc:format>image/svg+xml</dc:format>
        <dc:type
           rdf:resource="http://purl.org/dc/dcmitype/StillImage" />
        <dc:title></dc:title>
      </cc:Work>
    </rdf:RDF>
  </metadata>
  <g
     inkscape:label="head"
     inkscape:groupmode="layer"
     id="layer1"
     style="display:inline"
     transform="translate(-30.166388,-38.441435)"
     sodipodi:insensitive="true">
    <path
       id="path10"
       style="fill:url(#radialGradient1135);fill-opacity:1;stroke:none;stroke-width:3.78259;stroke-linejoin:round;stroke-miterlimit:0;stroke-opacity:1"
       d="m 107.19141,307.49023 c 0.26295,0.30846 0.50913,0.65582 0.77343,0.96094 2.45196,2.83067 4.9606,5.51787 7.51758,8.05274 2.55698,2.53486 5.16226,4.91802 7.80469,7.14062 2.64243,2.2226 5.32295,4.28387 8.03125,6.17774 2.7083,1.89386 5.44461,3.61929 8.19922,5.16796 2.7546,1.54868 5.52726,2.92041 8.30859,4.10743 2.78134,1.18702 5.57089,2.18914 8.35938,2.99804 2.78849,0.80891 5.57548,1.42552 8.35156,1.83985 2.77607,0.41432 5.54107,0.62758 8.28516,0.63086 2.74408,0.003 5.46763,-0.20273 8.16015,-0.62696 2.69253,-0.42422 5.35517,-1.06735 7.97656,-1.93554 2.6214,-0.8682 5.13929,-1.94213 7.55274,-3.20899 2.41345,-1.26685 4.72224,-2.72656 6.92187,-4.36719 2.19964,-1.64062 4.2896,-3.46167 6.26953,-5.45117 1.97994,-1.98949 3.84915,-4.14745 5.60352,-6.46094 1.75437,-2.31348 3.39505,-4.78195 4.91797,-7.39453 1.52292,-2.61257 2.92924,-5.36908 4.21484,-8.25586 1.2856,-2.88677 2.44979,-5.90492 3.49219,-9.04101 1.0424,-3.13609 1.96253,-6.3895 2.75586,-9.75 0.79333,-3.36051 1.45967,-6.82864 1.99805,-10.38867 0.53837,-3.56004 0.94901,-7.2126 1.22656,-10.94727 0.27755,-3.73467 0.42275,-7.55113 0.43359,-11.43555 0.0109,-3.88441 -0.11326,-7.83643 -0.375,-11.8457 -0.26173,-4.00926 -0.66098,-8.07437 -1.20117,-12.18359 -0.54019,-4.10923 -1.22235,-8.26297 -2.04687,-12.44727 -0.82453,-4.18429 -1.79152,-8.40029 -2.90625,-12.63476 -1.11474,-4.23448 -2.3763,-8.48829 -3.78711,-12.74805 -1.41082,-4.25976 -2.93704,-8.42359 -4.57032,-12.48633 -1.63327,-4.06274 -3.37282,-8.0238 -5.20898,-11.87305 -1.83616,-3.84924 -3.7696,-7.58773 -5.78906,-11.20703 -2.01947,-3.61929 -4.12539,-7.1193 -6.3086,-10.49218 -2.1832,-3.37289 -4.44411,-6.61851 -6.77148,-9.72852 -2.32737,-3.11001 -4.72187,-6.0834 -7.17383,-8.91406 -2.45196,-2.83067 -4.9606,-5.51787 -7.51758,-8.05274 -2.55698,-2.53486 -5.16226,-4.91803 -7.80468,-7.14062 -2.64243,-2.2226 -5.32295,-4.28582 -8.03125,-6.17969 -2.70831,-1.89387 -5.44462,-3.61929 -8.19922,-5.16797 -2.75461,-1.54867 -5.52726,-2.920399 -8.3086,-4.10742 -2.18811,-0.933848 -4.38233,-1.658466 -6.57617,-2.359375 -26.78927,24.570215 -46.460977,56.414775 -53.847655,93.507815 -5.663007,40.89872 2.017859,81.64752 19.269535,118.24804 z"
       transform="matrix(0.26458333,0,0,0.26458333,30.166388,38.441435)"
       inkscape:original-d="m 107.19141,307.49023 c 0.26295,0.30846 0.50913,0.65582 0.77343,0.96094 2.45196,2.83067 4.9606,5.51787 7.51758,8.05274 2.55698,2.53486 5.16226,4.91802 7.80469,7.14062 2.64243,2.2226 5.32295,4.28387 8.03125,6.17774 2.7083,1.89386 5.44461,3.61929 8.19922,5.16796 2.7546,1.54868 5.52726,2.92041 8.30859,4.10743 2.78134,1.18702 5.57089,2.18914 8.35938,2.99804 2.78849,0.80891 5.57548,1.42552 8.35156,1.83985 2.77607,0.41432 5.54107,0.62758 8.28516,0.63086 2.74408,0.003 5.46763,-0.20273 8.16015,-0.62696 2.69253,-0.42422 5.35517,-1.06735 7.97656,-1.93554 2.6214,-0.8682 5.13929,-1.94213 7.55274,-3.20899 2.41345,-1.26685 4.72224,-2.72656 6.92187,-4.36719 2.19964,-1.64062 4.2896,-3.46167 6.26953,-5.45117 1.97994,-1.98949 3.84915,-4.14745 5.60352,-6.46094 1.75437,-2.31348 3.39505,-4.78195 4.91797,-7.39453 1.52292,-2.61257 2.92924,-5.36908 4.21484,-8.25586 1.2856,-2.88677 2.44979,-5.90492 3.49219,-9.04101 1.0424,-3.13609 1.96253,-6.3895 2.75586,-9.75 0.79333,-3.36051 1.45967,-6.82864 1.99805,-10.38867 0.53837,-3.56004 0.94901,-7.2126 1.22656,-10.94727 0.27755,-3.73467 0.42275,-7.55113 0.43359,-11.43555 0.0109,-3.88441 -0.11326,-7.83643 -0.375,-11.8457 -0.26173,-4.00926 -0.66098,-8.07437 -1.20117,-12.18359 -0.54019,-4.10923 -1.22235,-8.26297 -2.04687,-12.44727 -0.82453,-4.18429 -1.79152,-8.40029 -2.90625,-12.63476 -1.11474,-4.23448 -2.3763,-8.48829 -3.78711,-12.74805 -1.41082,-4.25976 -2.93704,-8.42359 -4.57032,-12.48633 -1.63327,-4.06274 -3.37282,-8.0238 -5.20898,-11.87305 -1.83616,-3.84924 -3.7696,-7.58773 -5.78906,-11.20703 -2.01947,-3.61929 -4.12539,-7.1193 -6.3086,-10.49218 -2.1832,-3.37289 -4.44411,-6.61851 -6.77148,-9.72852 -2.32737,-3.11001 -4.72187,-6.0834 -7.17383,-8.91406 -2.45196,-2.83067 -4.9606,-5.51787 -7.51758,-8.05274 -2.55698,-2.53486 -5.16226,-4.91803 -7.80468,-7.14062 -2.64243,-2.2226 -5.32295,-4.28582 -8.03125,-6.17969 -2.70831,-1.89387 -5.44462,-3.61929 -8.19922,-5.16797 -2.75461,-1.54867 -5.52726,-2.920399 -8.3086,-4.10742 -2.18811,-0.933848 -4.38233,-1.658466 -6.57617,-2.359375 -26.78927,24.570215 -46.460977,56.414775 -53.847655,93.507815 -5.663007,40.89872 2.017859,81.64752 19.269535,118.24804 z"
       inkscape:path-effect="#path-effect1118" />
    <path
       id="path1115"
       style="fill:url(#radialGradient3128);fill-opacity:1;stroke:none;stroke-width:1.00081;stroke-linejoin:round;stroke-miterlimit:0;stroke-opacity:1"
       d="m 105,49.272927 c -13.639366,0.01327 -27.347478,5.348321 -37.323758,14.498228 0.580453,0.185449 1.161008,0.37717 1.739945,0.624251 0.735896,0.314066 1.469493,0.677003 2.198317,1.086755 0.728821,0.409755 1.452803,0.866272 2.169377,1.367359 0.716571,0.501086 1.425792,1.04698 2.124935,1.635043 0.69914,0.58806 1.388454,1.218607 2.064988,1.889289 0.676534,0.670684 1.340279,1.381672 1.989026,2.13062 0.648748,0.748946 1.282293,1.535655 1.898076,2.358512 0.615784,0.822857 1.213983,1.681594 1.791621,2.574004 0.577641,0.892408 1.134832,1.818452 1.66915,2.776056 0.534316,0.957607 1.045872,1.946749 1.531689,2.965193 0.485817,1.018448 0.946073,2.066478 1.378209,3.141412 0.432139,1.074933 0.835951,2.176613 1.209231,3.303674 0.373277,1.127062 0.707064,2.252549 1.002006,3.372922 0.294939,1.12037 0.550788,2.235853 0.768945,3.342947 0.218155,1.107096 0.398643,2.206106 0.541568,3.29334 0.142925,1.087228 0.24856,2.162788 0.31781,3.223578 0.06925,1.06078 0.102089,2.10642 0.09922,3.13417 -0.0029,1.02775 -0.04129,2.03753 -0.11472,3.02566 -0.07344,0.98813 -0.182084,1.95454 -0.324528,2.89646 -0.142446,0.94193 -0.318749,1.85954 -0.52865,2.74867 -0.209902,0.88913 -0.453353,1.74993 -0.729155,2.57969 -0.275802,0.82976 -0.583827,1.62831 -0.923975,2.3921 -0.340149,0.76379 -0.712237,1.49312 -1.115177,2.18436 -0.402939,0.69125 -0.837035,1.34436 -1.301213,1.95647 -0.464177,0.61211 -0.958738,1.18307 -1.482598,1.70946 -0.523856,0.52639 -1.076825,1.00821 -1.658813,1.44229 -0.581985,0.43408 -1.192852,0.8203 -1.831411,1.15548 -0.638559,0.33519 -1.30475,0.61934 -1.998329,0.84905 -0.693576,0.22971 -1.398066,0.39987 -2.110465,0.51211 -0.712396,0.11224 -1.433002,0.16675 -2.15904,0.16588 -0.72604,-7.9e-4 -1.457613,-0.0573 -2.192115,-0.16691 -0.734504,-0.10963 -1.471895,-0.27277 -2.209683,-0.4868 -0.737788,-0.21402 -1.475857,-0.47916 -2.211753,-0.79323 -0.735894,-0.31406 -1.469493,-0.677 -2.198314,-1.08675 -0.728824,-0.40976 -1.452806,-0.86628 -2.169377,-1.36736 -0.716571,-0.50109 -1.425792,-1.04646 -2.124935,-1.63453 -0.699143,-0.58806 -1.388457,-1.2186 -2.064991,-1.88929 -0.676534,-0.67068 -1.340279,-1.38167 -1.989026,-2.13062 -0.06993,-0.0807 -0.135065,-0.17263 -0.204637,-0.25425 8.645386,18.34174 26.382314,32.743 46.47255,35.99418 20.09023,-3.25118 37.82716,-17.65244 46.47255,-35.99418 -0.0696,0.0816 -0.13471,0.17355 -0.20464,0.25425 -0.64875,0.74895 -1.31249,1.45994 -1.98903,2.13062 -0.67653,0.67069 -1.36584,1.30123 -2.06499,1.88929 -0.69914,0.58807 -1.40836,1.13344 -2.12493,1.63453 -0.71657,0.50108 -1.44055,0.9576 -2.16938,1.36736 -0.72882,0.40975 -1.46242,0.77269 -2.19831,1.08675 -0.7359,0.31407 -1.47397,0.57921 -2.21176,0.79323 -0.73778,0.21403 -1.47517,0.37717 -2.20968,0.4868 -0.7345,0.10961 -1.46607,0.16612 -2.19211,0.16691 -0.72604,8.7e-4 -1.44665,-0.0536 -2.15904,-0.16588 -0.7124,-0.11224 -1.41689,-0.2824 -2.11047,-0.51211 -0.69358,-0.22971 -1.35977,-0.51386 -1.99833,-0.84905 -0.63856,-0.33518 -1.24942,-0.7214 -1.83141,-1.15548 -0.58199,-0.43408 -1.13496,-0.9159 -1.65881,-1.44229 -0.52386,-0.52639 -1.01842,-1.09735 -1.4826,-1.70946 -0.46418,-0.61211 -0.89827,-1.26522 -1.30121,-1.95647 -0.40294,-0.69124 -0.77503,-1.42057 -1.11518,-2.18436 -0.34015,-0.76379 -0.64817,-1.56234 -0.92397,-2.3921 -0.27581,-0.82976 -0.51926,-1.69056 -0.72916,-2.57969 -0.2099,-0.88913 -0.3862,-1.80674 -0.52865,-2.74867 -0.14244,-0.94192 -0.25109,-1.90833 -0.32453,-2.89646 -0.0734,-0.98813 -0.11182,-1.99791 -0.11472,-3.02566 -0.003,-1.02775 0.03,-2.07339 0.0992,-3.13417 0.0692,-1.06079 0.17489,-2.13635 0.31781,-3.223578 0.14293,-1.087234 0.32342,-2.186244 0.54157,-3.29334 0.21816,-1.107094 0.47401,-2.222577 0.76895,-3.342947 0.29494,-1.120373 0.62872,-2.24586 1.002,-3.372922 0.37328,-1.127061 0.77709,-2.228741 1.20923,-3.303674 0.43214,-1.074934 0.89239,-2.122964 1.37821,-3.141412 0.48582,-1.018444 0.99737,-2.007586 1.53169,-2.965193 0.53432,-0.957604 1.09151,-1.883648 1.66915,-2.776056 0.57764,-0.89241 1.17584,-1.751147 1.79162,-2.574004 0.61578,-0.822857 1.24933,-1.609566 1.89808,-2.358512 0.64874,-0.748948 1.31249,-1.459936 1.98902,-2.13062 0.67654,-0.670682 1.36585,-1.301229 2.06499,-1.889289 0.69914,-0.588063 1.40837,-1.133957 2.12494,-1.635043 0.71657,-0.501087 1.44055,-0.957604 2.16937,-1.367359 0.72883,-0.409752 1.46242,-0.772689 2.19832,-1.086755 0.57894,-0.247081 1.15949,-0.438802 1.73995,-0.624251 C 132.34747,54.621248 118.63936,49.286196 105,49.272927 Z"
       inkscape:path-effect="#path-effect1138"
       inkscape:original-d="m 106.13694,49.284184 c -14.011481,-0.291582 -28.20716,5.082773 -38.460698,14.486971 0.580453,0.185449 1.161008,0.37717 1.739945,0.624251 0.735896,0.314066 1.469493,0.677003 2.198317,1.086755 0.728821,0.409755 1.452803,0.866272 2.169377,1.367359 0.716571,0.501086 1.425792,1.04698 2.124935,1.635043 0.69914,0.58806 1.388454,1.218607 2.064988,1.889289 0.676534,0.670684 1.340279,1.381672 1.989026,2.13062 0.648748,0.748946 1.282293,1.535655 1.898076,2.358512 0.615784,0.822857 1.213983,1.681594 1.791621,2.574004 0.577641,0.892408 1.134832,1.818452 1.66915,2.776056 0.534316,0.957607 1.045872,1.946749 1.531689,2.965193 0.485817,1.018448 0.946073,2.066478 1.378209,3.141412 0.432139,1.074933 0.835951,2.176613 1.209231,3.303674 0.373277,1.127062 0.707064,2.252549 1.002006,3.372922 0.294939,1.12037 0.550788,2.235853 0.768945,3.342947 0.218155,1.107096 0.398643,2.206106 0.541568,3.29334 0.142925,1.087228 0.24856,2.162788 0.31781,3.223578 0.06925,1.06078 0.102089,2.10642 0.09922,3.13417 -0.0029,1.02775 -0.04129,2.03753 -0.11472,3.02566 -0.07344,0.98813 -0.182084,1.95454 -0.324528,2.89646 -0.142446,0.94193 -0.318749,1.85954 -0.52865,2.74867 -0.209902,0.88913 -0.453353,1.74993 -0.729155,2.57969 -0.275802,0.82976 -0.583827,1.62831 -0.923975,2.3921 -0.340149,0.76379 -0.712237,1.49312 -1.115177,2.18436 -0.402939,0.69125 -0.837035,1.34436 -1.301213,1.95647 -0.464177,0.61211 -0.958738,1.18307 -1.482598,1.70946 -0.523856,0.52639 -1.076825,1.00821 -1.658813,1.44229 -0.581985,0.43408 -1.192852,0.8203 -1.831411,1.15548 -0.638559,0.33519 -1.30475,0.61934 -1.998329,0.84905 -0.693576,0.22971 -1.398066,0.39987 -2.110465,0.51211 -0.712396,0.11224 -1.433002,0.16675 -2.15904,0.16588 -0.72604,-7.9e-4 -1.457613,-0.0573 -2.192115,-0.16691 -0.734504,-0.10963 -1.471895,-0.27277 -2.209683,-0.4868 -0.737788,-0.21402 -1.475857,-0.47916 -2.211753,-0.79323 -0.735894,-0.31406 -1.469493,-0.677 -2.198314,-1.08675 -0.728824,-0.40976 -1.452806,-0.86628 -2.169377,-1.36736 -0.716571,-0.50109 -1.425792,-1.04646 -2.124935,-1.63453 -0.699143,-0.58806 -1.388457,-1.2186 -2.064991,-1.88929 -0.676534,-0.67068 -1.340279,-1.38167 -1.989026,-2.13062 -0.06993,-0.0807 -0.135065,-0.17263 -0.204637,-0.25425 8.645395,18.34176 26.38235,32.74303 46.47261,35.99419 26.70568,-4.3425 48.99009,-28.22482 51.93016,-55.04315 3.08999,-23.367765 -15.94296,-44.294331 -37.80958,-49.473983 -4.22499,-1.252789 -8.59532,-1.89977 -12.9837,-1.991093 z" />
    <path
       transform="matrix(-0.26458333,0,0,0.26458333,179.83361,38.441435)"
       id="mirror-path-effect1118"
       d="m 107.19141,307.49023 c 0.26295,0.30846 0.50913,0.65582 0.77343,0.96094 2.45196,2.83067 4.9606,5.51787 7.51758,8.05274 2.55698,2.53486 5.16226,4.91802 7.80469,7.14062 2.64243,2.2226 5.32295,4.28387 8.03125,6.17774 2.7083,1.89386 5.44461,3.61929 8.19922,5.16796 2.7546,1.54868 5.52726,2.92041 8.30859,4.10743 2.78134,1.18702 5.57089,2.18914 8.35938,2.99804 2.78849,0.80891 5.57548,1.42552 8.35156,1.83985 2.77607,0.41432 5.54107,0.62758 8.28516,0.63086 2.74408,0.003 5.46763,-0.20273 8.16015,-0.62696 2.69253,-0.42422 5.35517,-1.06735 7.97656,-1.93554 2.6214,-0.8682 5.13929,-1.94213 7.55274,-3.20899 2.41345,-1.26685 4.72224,-2.72656 6.92187,-4.36719 2.19964,-1.64062 4.2896,-3.46167 6.26953,-5.45117 1.97994,-1.98949 3.84915,-4.14745 5.60352,-6.46094 1.75437,-2.31348 3.39505,-4.78195 4.91797,-7.39453 1.52292,-2.61257 2.92924,-5.36908 4.21484,-8.25586 1.2856,-2.88677 2.44979,-5.90492 3.49219,-9.04101 1.0424,-3.13609 1.96253,-6.3895 2.75586,-9.75 0.79333,-3.36051 1.45967,-6.82864 1.99805,-10.38867 0.53837,-3.56004 0.94901,-7.2126 1.22656,-10.94727 0.27755,-3.73467 0.42275,-7.55113 0.43359,-11.43555 0.0109,-3.88441 -0.11326,-7.83643 -0.375,-11.8457 -0.26173,-4.00926 -0.66098,-8.07437 -1.20117,-12.18359 -0.54019,-4.10923 -1.22235,-8.26297 -2.04687,-12.44727 -0.82453,-4.18429 -1.79152,-8.40029 -2.90625,-12.63476 -1.11474,-4.23448 -2.3763,-8.48829 -3.78711,-12.74805 -1.41082,-4.25976 -2.93704,-8.42359 -4.57032,-12.48633 -1.63327,-4.06274 -3.37282,-8.0238 -5.20898,-11.87305 -1.83616,-3.84924 -3.7696,-7.58773 -5.78906,-11.20703 -2.01947,-3.61929 -4.12539,-7.1193 -6.3086,-10.49218 -2.1832,-3.37289 -4.44411,-6.61851 -6.77148,-9.72852 -2.32737,-3.11001 -4.72187,-6.0834 -7.17383,-8.91406 -2.45196,-2.83067 -4.9606,-5.51787 -7.51758,-8.05274 -2.55698,-2.53486 -5.16226,-4.91803 -7.80468,-7.14062 -2.64243,-2.2226 -5.32295,-4.28582 -8.03125,-6.17969 -2.70831,-1.89387 -5.44462,-3.61929 -8.19922,-5.16797 -2.75461,-1.54867 -5.52726,-2.920399 -8.3086,-4.10742 -2.18811,-0.933848 -4.38233,-1.658466 -6.57617,-2.359375 -26.78927,24.570215 -46.460977,56.414775 -53.847655,93.507815 -5.663007,40.89872 2.017859,81.64752 19.269535,118.24804 z"
       style="fill:url(#radialGradient1129);fill-opacity:1;stroke:none;stroke-width:3.78259;stroke-linejoin:round;stroke-miterlimit:0;stroke-opacity:1" />
  </g>
  <g
     inkscape:groupmode="layer"
     id="layer3"
     inkscape:label="antennas"
     style="display:inline"
     transform="translate(-30.166388,-38.441435)">
    <path
       id="path62-7"
       style="display:inline;fill:#16202a;stroke-width:0.871631;stroke-linejoin:round;stroke-miterlimit:0"
       transform="translate(3.4951547,6.8685281)"
       d="m 68.583257,31.702213 c -1.085082,0.199129 -2.113073,0.613316 -3.065601,1.257057 -0.362393,0.244906 -0.707322,0.518775 -1.034786,0.819786 8.805284,-2.264266 20.923668,8.45549 28.672243,25.363072 2.999274,6.544299 5.101628,13.519521 6.063639,20.118024 C 99.294095,71.909867 97.33211,62.947335 93.342921,54.242736 86.564216,39.45134 76.178635,30.307171 68.583257,31.702213 Z M 71.437499,31.75 C 49.836023,31.717779 30.615663,55.779291 27.437601,86.832426 26.165553,99.260455 27.629482,111.64906 31.621325,122.2375 h 2.15129 C 30.669967,113.76253 29.061809,104.52021 29.061791,95.1637 29.061782,62.996577 47.775795,35.845143 72.74698,31.782557 72.31117,31.761662 71.874621,31.750808 71.437499,31.75 Z m 62.988931,-0.04779 c 1.08508,0.199129 2.11307,0.613316 3.0656,1.257057 0.36239,0.244906 0.70732,0.518775 1.03479,0.819786 -8.80529,-2.264266 -20.92367,8.45549 -28.67225,25.363072 -2.99927,6.544299 -5.10162,13.519521 -6.06363,20.118024 -0.0754,-7.350285 1.88664,-16.312817 5.87583,-25.017416 6.7787,-14.791396 17.16428,-23.935565 24.75966,-22.540523 z M 131.57219,31.75 c 21.60147,-0.03222 40.82183,24.029291 43.9999,55.082426 1.27204,12.428029 -0.19188,24.816634 -4.18373,35.405074 h -2.15129 c 3.10265,-8.47497 4.71081,-17.71729 4.71083,-27.0738 1e-5,-32.167123 -18.71401,-59.318557 -43.68519,-63.381143 0.43581,-0.02089 0.87236,-0.03175 1.30948,-0.03256 z"
       inkscape:original-d="m 68.583257,31.702213 c -1.085082,0.199129 -2.113073,0.613316 -3.065601,1.257057 -0.362393,0.244906 -0.707322,0.518775 -1.034786,0.819786 8.805284,-2.264266 20.923668,8.45549 28.672243,25.363072 2.999274,6.544299 5.101628,13.519521 6.063639,20.118024 C 99.294095,71.909867 97.33211,62.947335 93.342921,54.242736 86.564216,39.45134 76.178635,30.307171 68.583257,31.702213 Z M 71.437499,31.75 C 49.836023,31.717779 30.615663,55.779291 27.437601,86.832426 26.165553,99.260455 27.629482,111.64906 31.621325,122.2375 h 2.15129 C 30.669967,113.76253 29.061809,104.52021 29.061791,95.1637 29.061782,62.996577 47.775795,35.845143 72.74698,31.782557 72.31117,31.761662 71.874621,31.750808 71.437499,31.75 Z"
       inkscape:path-effect="#path-effect1047" />
  </g>
  <g
     inkscape:groupmode="layer"
     id="layer2"
     inkscape:label="eyes"
     style="display:inline"
     transform="translate(-30.166388,-38.441435)"
     sodipodi:insensitive="true" />
</svg>
